<svg width="79" height="81" viewBox="0 0 79 81" fill="none" xmlns="http://www.w3.org/2000/svg">
<path d="M19.2562 57.7125C22.0541 55.5188 25.1812 53.7891 28.6374 52.5234C32.0937 51.2578 35.7145 50.625 39.4999 50.625C43.2853 50.625 46.9062 51.2578 50.3624 52.5234C53.8187 53.7891 56.9457 55.5188 59.7437 57.7125C61.6638 55.4062 63.1588 52.7906 64.2286 49.8656C65.2984 46.9406 65.8332 43.8187 65.8332 40.5C65.8332 33.0187 63.2685 26.6484 58.139 21.3891C53.0095 16.1297 46.7964 13.5 39.4999 13.5C32.2034 13.5 25.9904 16.1297 20.8609 21.3891C15.7313 26.6484 13.1666 33.0187 13.1666 40.5C13.1666 43.8187 13.7015 46.9406 14.7713 49.8656C15.8411 52.7906 17.336 55.4062 19.2562 57.7125ZM39.4999 43.875C36.2631 43.875 33.5338 42.7359 31.3119 40.4578C29.09 38.1797 27.9791 35.3813 27.9791 32.0625C27.9791 28.7437 29.09 25.9453 31.3119 23.6672C33.5338 21.3891 36.2631 20.25 39.4999 20.25C42.7367 20.25 45.4661 21.3891 47.6879 23.6672C49.9098 25.9453 51.0207 28.7437 51.0207 32.0625C51.0207 35.3813 49.9098 38.1797 47.6879 40.4578C45.4661 42.7359 42.7367 43.875 39.4999 43.875ZM39.4999 74.25C34.9464 74.25 30.6673 73.3641 26.6624 71.5922C22.6576 69.8203 19.1739 67.4156 16.2114 64.3781C13.2489 61.3406 10.9036 57.7688 9.17544 53.6625C7.44731 49.5563 6.58325 45.1688 6.58325 40.5C6.58325 35.8312 7.44731 31.4438 9.17544 27.3375C10.9036 23.2312 13.2489 19.6594 16.2114 16.6219C19.1739 13.5844 22.6576 11.1797 26.6624 9.40781C30.6673 7.63594 34.9464 6.75 39.4999 6.75C44.0534 6.75 48.3326 7.63594 52.3374 9.40781C56.3423 11.1797 59.826 13.5844 62.7885 16.6219C65.751 19.6594 68.0963 23.2312 69.8244 27.3375C71.5525 31.4438 72.4166 35.8312 72.4166 40.5C72.4166 45.1688 71.5525 49.5563 69.8244 53.6625C68.0963 57.7688 65.751 61.3406 62.7885 64.3781C59.826 67.4156 56.3423 69.8203 52.3374 71.5922C48.3326 73.3641 44.0534 74.25 39.4999 74.25Z" fill="#1D1B20"/>
</svg>
