<svg width="35" height="35" viewBox="0 0 35 35" fill="none" xmlns="http://www.w3.org/2000/svg">
<path d="M20.0229 30.6248C19.7665 31.0668 19.3985 31.4337 18.9557 31.6887C18.513 31.9438 18.011 32.078 17.5 32.078C16.989 32.078 16.487 31.9438 16.0443 31.6887C15.6015 31.4337 15.2335 31.0668 14.9771 30.6248M26.25 11.6665C26.25 9.34586 25.3281 7.12026 23.6872 5.47932C22.0462 3.83838 19.8206 2.9165 17.5 2.9165C15.1794 2.9165 12.9538 3.83838 11.3128 5.47932C9.67187 7.12026 8.75 9.34586 8.75 11.6665C8.75 21.8748 4.375 24.7915 4.375 24.7915H30.625C30.625 24.7915 26.25 21.8748 26.25 11.6665Z" stroke="#1E1E1E" stroke-width="4" stroke-linecap="round" stroke-linejoin="round"/>
</svg>
