<svg width="79" height="81" viewBox="0 0 79 81" fill="none" xmlns="http://www.w3.org/2000/svg">
<path d="M19.2564 57.7125C22.0543 55.5188 25.1814 53.7891 28.6377 52.5234C32.0939 51.2578 35.7147 50.625 39.5002 50.625C43.2856 50.625 46.9064 51.2578 50.3627 52.5234C53.8189 53.7891 56.946 55.5188 59.7439 57.7125C61.664 55.4062 63.159 52.7906 64.2288 49.8656C65.2986 46.9406 65.8335 43.8187 65.8335 40.5C65.8335 33.0187 63.2687 26.6484 58.1392 21.3891C53.0097 16.1297 46.7967 13.5 39.5002 13.5C32.2036 13.5 25.9906 16.1297 20.8611 21.3891C15.7316 26.6484 13.1668 33.0187 13.1668 40.5C13.1668 43.8187 13.7017 46.9406 14.7715 49.8656C15.8413 52.7906 17.3363 55.4062 19.2564 57.7125ZM39.5002 43.875C36.2634 43.875 33.534 42.7359 31.3121 40.4578C29.0903 38.1797 27.9793 35.3813 27.9793 32.0625C27.9793 28.7437 29.0903 25.9453 31.3121 23.6672C33.534 21.3891 36.2634 20.25 39.5002 20.25C42.737 20.25 45.4663 21.3891 47.6882 23.6672C49.9101 25.9453 51.021 28.7437 51.021 32.0625C51.021 35.3813 49.9101 38.1797 47.6882 40.4578C45.4663 42.7359 42.737 43.875 39.5002 43.875ZM39.5002 74.25C34.9467 74.25 30.6675 73.3641 26.6627 71.5922C22.6578 69.8203 19.1741 67.4156 16.2116 64.3781C13.2491 61.3406 10.9038 57.7688 9.17568 53.6625C7.44756 49.5563 6.5835 45.1688 6.5835 40.5C6.5835 35.8312 7.44756 31.4438 9.17568 27.3375C10.9038 23.2312 13.2491 19.6594 16.2116 16.6219C19.1741 13.5844 22.6578 11.1797 26.6627 9.40781C30.6675 7.63594 34.9467 6.75 39.5002 6.75C44.0536 6.75 48.3328 7.63594 52.3377 9.40781C56.3425 11.1797 59.8262 13.5844 62.7887 16.6219C65.7512 19.6594 68.0965 23.2312 69.8246 27.3375C71.5528 31.4438 72.4168 35.8312 72.4168 40.5C72.4168 45.1688 71.5528 49.5563 69.8246 53.6625C68.0965 57.7688 65.7512 61.3406 62.7887 64.3781C59.8262 67.4156 56.3425 69.8203 52.3377 71.5922C48.3328 73.3641 44.0536 74.25 39.5002 74.25Z" fill="#1D1B20"/>
</svg>
