<svg width="79" height="81" viewBox="0 0 79 81" fill="none" xmlns="http://www.w3.org/2000/svg">
<path d="M19.2563 57.7125C22.0542 55.5188 25.1813 53.7891 28.6375 52.5234C32.0938 51.2578 35.7146 50.625 39.5 50.625C43.2855 50.625 46.9063 51.2578 50.3625 52.5234C53.8188 53.7891 56.9459 55.5188 59.7438 57.7125C61.6639 55.4062 63.1589 52.7906 64.2287 49.8656C65.2985 46.9406 65.8334 43.8187 65.8334 40.5C65.8334 33.0187 63.2686 26.6484 58.1391 21.3891C53.0096 16.1297 46.7966 13.5 39.5 13.5C32.2035 13.5 25.9905 16.1297 20.861 21.3891C15.7315 26.6484 13.1667 33.0187 13.1667 40.5C13.1667 43.8187 13.7016 46.9406 14.7714 49.8656C15.8412 52.7906 17.3362 55.4062 19.2563 57.7125ZM39.5 43.875C36.2632 43.875 33.5339 42.7359 31.312 40.4578C29.0901 38.1797 27.9792 35.3813 27.9792 32.0625C27.9792 28.7437 29.0901 25.9453 31.312 23.6672C33.5339 21.3891 36.2632 20.25 39.5 20.25C42.7368 20.25 45.4662 21.3891 47.6881 23.6672C49.9099 25.9453 51.0209 28.7437 51.0209 32.0625C51.0209 35.3813 49.9099 38.1797 47.6881 40.4578C45.4662 42.7359 42.7368 43.875 39.5 43.875ZM39.5 74.25C34.9466 74.25 30.6674 73.3641 26.6625 71.5922C22.6577 69.8203 19.174 67.4156 16.2115 64.3781C13.249 61.3406 10.9037 57.7688 9.17556 53.6625C7.44744 49.5563 6.58337 45.1688 6.58337 40.5C6.58337 35.8312 7.44744 31.4438 9.17556 27.3375C10.9037 23.2312 13.249 19.6594 16.2115 16.6219C19.174 13.5844 22.6577 11.1797 26.6625 9.40781C30.6674 7.63594 34.9466 6.75 39.5 6.75C44.0535 6.75 48.3327 7.63594 52.3375 9.40781C56.3424 11.1797 59.8261 13.5844 62.7886 16.6219C65.7511 19.6594 68.0964 23.2312 69.8245 27.3375C71.5526 31.4438 72.4167 35.8312 72.4167 40.5C72.4167 45.1688 71.5526 49.5563 69.8245 53.6625C68.0964 57.7688 65.7511 61.3406 62.7886 64.3781C59.8261 67.4156 56.3424 69.8203 52.3375 71.5922C48.3327 73.3641 44.0535 74.25 39.5 74.25Z" fill="#1D1B20"/>
</svg>
