<svg width="36" height="37" viewBox="0 0 36 37" fill="none" xmlns="http://www.w3.org/2000/svg">
<g clip-path="url(#clip0_54_205)">
<path d="M31.5 15.4167C31.5 26.2084 18 35.4584 18 35.4584C18 35.4584 4.5 26.2084 4.5 15.4167C4.5 11.7369 5.92232 8.20771 8.45406 5.60564C10.9858 3.00357 14.4196 1.54175 18 1.54175C21.5804 1.54175 25.0142 3.00357 27.5459 5.60564C30.0777 8.20771 31.5 11.7369 31.5 15.4167Z" stroke="#1E1E1E" stroke-width="4" stroke-linecap="round" stroke-linejoin="round"/>
<path d="M18 20.0417C20.4853 20.0417 22.5 17.9711 22.5 15.4167C22.5 12.8624 20.4853 10.7917 18 10.7917C15.5147 10.7917 13.5 12.8624 13.5 15.4167C13.5 17.9711 15.5147 20.0417 18 20.0417Z" stroke="#1E1E1E" stroke-width="4" stroke-linecap="round" stroke-linejoin="round"/>
</g>
<defs>
<clipPath id="clip0_54_205">
<rect width="36" height="37" fill="white"/>
</clipPath>
</defs>
</svg>
